<?xml version="1.0" standalone="no"?>
<!DOCTYPE svg PUBLIC "-//W3C//DTD SVG 20010904//EN"
 "http://www.w3.org/TR/2001/REC-SVG-20010904/DTD/svg10.dtd">
<svg version="1.0" xmlns="http://www.w3.org/2000/svg"
 width="550.000000pt" height="550.000000pt" viewBox="0 0 550.000000 550.000000"
 preserveAspectRatio="xMidYMid meet">

<g transform="translate(0.000000,550.000000) scale(0.100000,-0.100000)"
fill="#000000" stroke="none">
<path d="M1075 1158 c-3 -7 -4 -146 -3 -308 l3 -295 83 -3 82 -3 0 121 0 120
125 0 125 0 0 70 0 70 -126 0 -125 0 3 48 3 47 158 3 158 3 -3 67 -3 67 -238
3 c-186 2 -239 0 -242 -10z"/>
<path d="M1655 1158 c-3 -7 -4 -146 -3 -308 l3 -295 82 -3 83 -3 2 238 3 238
118 0 c106 0 120 -2 133 -19 11 -16 14 -66 14 -238 l0 -219 83 3 82 3 0 257
c0 245 -1 258 -21 285 -12 15 -36 37 -55 48 -31 18 -56 20 -276 23 -197 3
-244 1 -248 -10z"/>
<path d="M2482 1161 c-23 -4 -55 -17 -70 -28 -47 -35 -53 -72 -50 -337 l3
-241 82 -3 82 -3 3 76 3 76 130 0 130 0 3 -76 3 -76 82 3 82 3 0 305 0 305
-220 1 c-121 1 -239 -1 -263 -5z m316 -233 l3 -98 -136 0 -135 0 0 80 c0 116
7 121 153 118 l112 -3 3 -97z"/>
<path d="M3072 1100 l-31 -69 102 -3 102 -3 3 -238 2 -238 83 3 82 3 3 238 2
237 73 0 73 0 27 65 c15 36 27 68 27 70 0 3 -116 5 -259 5 l-258 0 -31 -70z"/>
<path d="M3687 1164 c-4 -4 -7 -144 -7 -311 l0 -303 85 0 85 0 -2 308 -3 307
-75 3 c-42 1 -79 0 -83 -4z"/>
<path d="M4049 1160 c-113 -19 -119 -34 -119 -293 0 -195 1 -205 23 -237 44
-65 79 -75 295 -78 l192 -3 0 70 0 71 -151 0 c-84 0 -159 5 -170 10 -17 10
-19 23 -19 160 0 137 2 150 19 160 11 5 71 10 133 10 l113 0 26 65 c15 35 24
67 21 70 -8 8 -310 4 -363 -5z"/>
</g>
</svg>
